{"title":"Bloodhounds of Broadway (1989) DVDRip XviD-pong","uid":15498230,"size":734126080,"categoryP":"video","categoryS":"movies","magnet":"?xt=urn:btih:34671b0f7e1ec0c317408fc9b5f71b1b1f2f81fc&amp;dn=Bloodhounds+of+Broadway+%281989%29+DVDRip+XviD-pong&amp;tr=udp%3A%2F%2Ftracker.leechers-paradise.org%3A6969&amp;tr=udp%3A%2F%2Fzer0day.ch%3A1337&amp;tr=udp%3A%2F%2Fopen.demonii.com%3A1337&amp;tr=udp%3A%2F%2Ftracker.coppersurfer.tk%3A6969&amp;tr=udp%3A%2F%2Fexodus.desync.com%3A6969","seeders":1,"leechers":1,"uploader":"Pongydog","files":1,"time":1470461093,"description":"http://www.imdb.com/title/tt0096953\r\n\r\nThis musical is based on four short stories by Damon Runyon. In one tale, gambler Feet Samuels sells his body to science just as he realizes that Hortense loves him and that he would rather live than die. In another story, Harriet's parrot is killed, and she has problems dealing with her loss. Then, there is a gambler, &quot;Right&quot;, who has bloodhounds on his trail when he becomes a murder suspect. Finally, &quot;The Brain&quot; is bleeding profusely, and his friends search for a way to save his life through a blood transfusion. \r\n- Written by Rachaela \r\n\r\nCast overview, first billed only: \r\nJosef Sommer  Josef Sommer   ...  \r\nWaldo Winchester \r\n \r\nMadonna  Madonna   ...  \r\nHortense Hathaway \r\n \r\nTony Azito  Tony Azito   ...  \r\nWaiter \r\n \r\nJennifer Grey  Jennifer Grey   ...  \r\nLovey Lou \r\n \r\nTony Longo  Tony Longo   ...  \r\nCrunch Sweeney \r\n \r\nRutger Hauer  Rutger Hauer   ...  \r\nThe Brain \r\n \r\nMatt Dillon  Matt Dillon   ...  \r\nRegret  \r\n\r\n\r\n\r\n\r\n----General\r\nComplete name                            : C:BLOODHOUNDS_OF_BROADWAYVIDEO_TSBloodhounds of Broadway (1989) DVDRip XviD-pong.avi\r\nFormat                                   : AVI\r\nFormat/Info                              : Audio Video Interleave\r\nFile size                                : 700 MiB\r\nDuration                                 : 1h 23mn\r\nOverall bit rate                         : 1 171 Kbps\r\nWriting application                      : VirtualDubMod 1.5.4.1 (build 2178/release)\r\nWriting library                          : VirtualDubMod build 2178/release\r\n\r\nVideo\r\nID                                       : 0\r\nFormat                                   : MPEG-4 Visual\r\nFormat profile                           : Advanced   \r\nFormat settings, BVOP                    : 1\r\nFormat settings, QPel                    : No\r\nFormat settings, GMC                     : No warppoints\r\nFormat settings, Matrix                  : Custom\r\nCodec ID                                 : XVID\r\nCodec ID/Hint                            : XviD\r\nDuration                                 : 1h 23mn\r\nBit rate                                 : 1 036 Kbps\r\nWidth                                    : 640 pixels\r\nHeight                                   : 352 pixels\r\nDisplay aspect ratio                     : 16:9\r\nFrame rate                               : 25.000 fps\r\nColor space                              : YUV\r\nChroma subsampling                       : 4:2:0\r\nBit depth                                : 8 bits\r\nScan type                                : Progressive\r\nCompression mode                         : Lossy\r\nBits/(Pixel*Frame)                       : 0.184\r\nStream size                              : 619 MiB (88%)\r\nWriting library                          : XviD 1.2.1 (UTC 2008-12-04)\r\n\r\nAudio\r\nID                                       : 1\r\nFormat                                   : MPEG Audio\r\nFormat version                           : Version 1\r\nFormat profile                           : Layer 3\r\nMode                                     : Joint stereo\r\nMode extension                           : MS Stereo\r\nCodec ID                                 : 55\r\nCodec ID/Hint                            : MP3\r\nDuration                                 : 1h 23mn\r\nBit rate mode                            : Constant\r\nBit rate                                 : 128 Kbps\r\nChannel(s)                               : 2 channels\r\nSampling rate                            : 48.0 KHz\r\nCompression mode                         : Lossy\r\nStream size                              : 76.5 MiB (11%)\r\nAlignment                                : Aligned on interleaves\r\nInterleave, duration                     : 80 ms (2.00 video frames)\r\nInterleave, preload duration             : 504 ms\r\nWriting library                          : LAME3.98r\r\nEncoding settings                        : -m j -V 4 -q 2 -lowpass 17 -b 128\r\nLanguage                                 : English","torrent":{"xt":"urn:btih:34671b0f7e1ec0c317408fc9b5f71b1b1f2f81fc","amp;dn":"Bloodhounds+of+Broadway+%281989%29+DVDRip+XviD-pong","amp;tr":["udp%3A%2F%2Ftracker.leechers-paradise.org%3A6969","udp%3A%2F%2Fzer0day.ch%3A1337","udp%3A%2F%2Fopen.demonii.com%3A1337","udp%3A%2F%2Ftracker.coppersurfer.tk%3A6969","udp%3A%2F%2Fexodus.desync.com%3A6969"],"infoHash":"34671b0f7e1ec0c317408fc9b5f71b1b1f2f81fc","infoHashBuffer":{"type":"Buffer","data":[52,103,27,15,126,30,192,195,23,64,143,201,181,247,27,27,31,47,129,252]},"announce":[],"urlList":[]}}